<svg xmlns="http://www.w3.org/2000/svg"  viewBox="0 0 100 100" width="100px" height="100px" fill-rule="evenodd" clip-rule="evenodd"><path fill="#c7ede6" d="M50,12c-20.987,0-38,17.013-38,38s17.013,38,38,38s38-17.013,38-38S70.987,12,50,12z"/><path fill="#f1bc19" d="M78,13c-0.552,0-1,0.448-1,1s0.448,1,1,1s1-0.448,1-1S78.552,13,78,13z"/><path fill="#f1bc19" d="M84,12c-2.209,0-4,1.791-4,4s1.791,4,4,4s4-1.791,4-4S86.209,12,84,12z"/><path fill="#ee3e54" d="M14,24c-1.105,0-2,0.895-2,2s0.895,2,2,2s2-0.895,2-2S15.105,24,14,24z"/><path fill="#fbcd59" d="M78,75c-1.105,0-2,0.895-2,2s0.895,2,2,2s2-0.895,2-2S79.105,75,78,75z M17,74 c-2.209,0-4,1.791-4,4s1.791,4,4,4s4-1.791,4-4S19.209,74,17,74z"/><path fill="#ee3e54" d="M24,81c-1.105,0-2,0.895-2,2s0.895,2,2,2s2-0.895,2-2S25.105,81,24,81z"/><path fill="#fff" d="M66.483,76.034c-1.371,0-2.483,1.112-2.483,2.483S65.112,81,66.483,81s2.483-1.112,2.483-2.483 S67.854,76.034,66.483,76.034z M16,47c-0.552,0-1,0.448-1,1s0.448,1,1,1c0.552,0,1-0.448,1-1S16.552,47,16,47z"/><path fill="#f1bc19" d="M86,30c-0.552,0-1,0.448-1,1s0.448,1,1,1s1-0.448,1-1S86.552,30,86,30z"/><path fill="#fff" d="M80,64c-1.105,0-2,0.895-2,2s0.895,2,2,2s2-0.895,2-2S81.105,64,80,64z"/><path fill="#2d80d3" d="M71.44,35.14v29.54c0,0.05,0,0.1-0.01,0.15c-0.07,3.69-3.12,6.69-6.83,6.69H35.06	c-3.76,0-6.85-3.08-6.85-6.84V35.14c0-3.77,3.09-6.85,6.85-6.85H64.6C68.36,28.29,71.44,31.37,71.44,35.14z"/><polygon fill="#1e65d6" points="34.88,64.12 41.25,72 66.625,71.5 70.625,67.5 72,62 39.5,59.75"/><path fill="#fff" d="M71.44,35.14C71.44,35.14,72,55,72,62c-1,4-4,7-14,7c-6.3,0-12.55-2.28-16.89-6.03	c-2.58,1.82-6.23,1.15-6.23,1.15c1.83-1.45,2.44-3.38,2.49-5.22C34.61,55.1,33,50.48,33,45.5c0-6.8,3.01-12.92,7.82-17.21H64.6	C68.36,28.29,71.44,31.37,71.44,35.14z"/><path fill="#1e65d6" fill-rule="evenodd" d="M53.669,45.653v-0.48h1.439v6.757h-0.824	c-0.339,0-0.614-0.274-0.616-0.612c0,0,0,0-0.001,0c-0.58,0.424-1.296,0.676-2.07,0.676c-1.939,0-3.51-1.571-3.51-3.508	s1.572-3.508,3.51-3.508C52.372,44.977,53.089,45.229,53.669,45.653C53.669,45.653,53.669,45.653,53.669,45.653z M47.715,43v0.219	c0,0.409-0.055,0.742-0.32,1.134l-0.032,0.037c-0.058,0.066-0.194,0.22-0.259,0.304l-4.621,5.8h5.232v0.821	c0,0.34-0.276,0.616-0.616,0.616H40.32v-0.387c0-0.474,0.118-0.686,0.267-0.906l4.926-6.097h-4.987V43H47.715z M56.855,51.929	c-0.283,0-0.513-0.23-0.513-0.513V43h1.541v8.929H56.855z M62.437,44.935c1.952,0,3.534,1.583,3.534,3.532	c0,1.951-1.582,3.533-3.534,3.533c-1.952,0-3.534-1.583-3.534-3.533C58.903,46.517,60.485,44.935,62.437,44.935z M51.598,50.549	c1.141,0,2.065-0.924,2.065-2.064c0-1.138-0.924-2.062-2.065-2.062c-1.141,0-2.065,0.924-2.065,2.062	C49.533,49.625,50.458,50.549,51.598,50.549z M62.437,50.546c1.148,0,2.079-0.931,2.079-2.079c0-1.147-0.931-2.077-2.079-2.077	c-1.149,0-2.079,0.931-2.079,2.077C60.358,49.615,61.288,50.546,62.437,50.546z" clip-rule="evenodd"/><path fill="#472b29" d="M64,29c3.86,0,7,3.14,7,7v28c0,2.139-0.956,4.128-2.643,5.474 c-0.256,0.215-0.537,0.406-0.865,0.584c-0.795,0.468-1.677,0.768-2.613,0.889C64.587,70.983,64.299,71,64,71H36 c-0.896,0-1.781-0.171-2.629-0.508c-0.277-0.111-0.559-0.252-0.875-0.44c-1.102-0.629-2.007-1.553-2.624-2.681 C29.302,66.354,29,65.189,29,64V36c0-3.86,3.14-7,7-7H64 M64,28H36c-4.42,0-8,3.58-8,8v28c0,1.4,0.36,2.72,1,3.86 c0.7,1.28,1.74,2.34,3,3.06c0.32,0.19,0.65,0.36,1,0.5c0.93,0.37,1.94,0.58,3,0.58h28c0.34,0,0.67-0.02,1-0.06 c1.08-0.14,2.1-0.49,3-1.02c0.35-0.19,0.69-0.42,1-0.68c1.83-1.46,3-3.71,3-6.24V36C72,31.58,68.42,28,64,28L64,28z"/><path fill="#472b29" d="M64,29.4c3.639,0,6.6,2.961,6.6,6.6v28c0,3.639-2.961,6.6-6.6,6.6H36c-3.639,0-6.6-2.961-6.6-6.6 V36c0-3.639,2.961-6.6,6.6-6.6H64 M64,28H36c-4.418,0-8,3.582-8,8v28c0,4.418,3.582,8,8,8h28c4.418,0,8-3.582,8-8V36 C72,31.582,68.418,28,64,28L64,28z"/><path fill="#472b29" d="M62.629,69.286H36.837c-3.298,0-5.981-2.683-5.981-5.981V37.513c0-3.298,2.683-5.981,5.981-5.981 h24.561c0.193,0,0.35,0.157,0.35,0.35s-0.157,0.35-0.35,0.35H36.837c-2.912,0-5.281,2.369-5.281,5.281v25.792 c0,2.912,2.369,5.281,5.281,5.281h25.792c2.912,0,5.28-2.369,5.28-5.281V49.036c0-0.193,0.157-0.35,0.35-0.35 s0.35,0.157,0.35,0.35v14.268C68.61,66.602,65.927,69.286,62.629,69.286z M68.26,47.328c-0.193,0-0.35-0.157-0.35-0.35v-2.745 c0-0.193,0.157-0.35,0.35-0.35s0.35,0.157,0.35,0.35v2.745C68.61,47.171,68.453,47.328,68.26,47.328z M68.26,43.211 c-0.193,0-0.35-0.157-0.35-0.35v-1.373c0-0.193,0.157-0.35,0.35-0.35s0.35,0.157,0.35,0.35v1.373 C68.61,43.054,68.453,43.211,68.26,43.211z"/></svg>