<svg xmlns="http://www.w3.org/2000/svg"  viewBox="0 0 100 100" width="100px" height="100px"><path fill="#f1bc19" d="M77 12A1 1 0 1 0 77 14A1 1 0 1 0 77 12Z"/><path fill="#e4e4f9" d="M50 13A37 37 0 1 0 50 87A37 37 0 1 0 50 13Z"/><path fill="#f1bc19" d="M83 11A4 4 0 1 0 83 19A4 4 0 1 0 83 11Z"/><path fill="#8889b9" d="M87 22A2 2 0 1 0 87 26A2 2 0 1 0 87 22Z"/><path fill="#fbcd59" d="M81 74A2 2 0 1 0 81 78 2 2 0 1 0 81 74zM15 59A4 4 0 1 0 15 67 4 4 0 1 0 15 59z"/><path fill="#8889b9" d="M25 85A2 2 0 1 0 25 89A2 2 0 1 0 25 85Z"/><path fill="#fff" d="M79.5 32A1.5 1.5 0 1 0 79.5 35A1.5 1.5 0 1 0 79.5 32Z"/><g><path fill="#78cdd4" d="M35,72.3c-4.025,0-7.3-3.274-7.3-7.3V35c0-4.025,3.274-7.3,7.3-7.3h30c4.025,0,7.3,3.274,7.3,7.3 v30c0,4.025-3.274,7.3-7.3,7.3H35z"/><path fill="#472b29" d="M65,28.4c3.639,0,6.6,2.961,6.6,6.6v30c0,3.639-2.961,6.6-6.6,6.6H35c-3.639,0-6.6-2.961-6.6-6.6 V35c0-3.639,2.961-6.6,6.6-6.6H65 M65,27H35c-4.4,0-8,3.6-8,8v30c0,4.4,3.6,8,8,8h30c4.4,0,8-3.6,8-8V35C73,30.6,69.4,27,65,27 L65,27z"/></g><g><path fill="#fefdef" d="M62.391,69H37.609C33.974,69,31,66.026,31,62.391V37.609C31,33.974,33.974,31,37.609,31h24.783 C66.026,31,69,33.974,69,37.609v24.783C69,66.026,66.026,69,62.391,69z"/></g><g><path fill="#472b29" d="M68.5,47.375c-0.276,0-0.5-0.224-0.5-0.5V43c0-0.276,0.224-0.5,0.5-0.5S69,42.724,69,43v3.875 C69,47.151,68.776,47.375,68.5,47.375z"/></g><g><path fill="#472b29" d="M68.5,40.5c-0.276,0-0.5-0.224-0.5-0.5v-2c0-0.276,0.224-0.5,0.5-0.5S69,37.724,69,38v2 C69,40.276,68.776,40.5,68.5,40.5z"/></g><g><path fill="#472b29" d="M64,69H36c-2.757,0-5-2.243-5-5V36c0-2.757,2.243-5,5-5h25.375c0.276,0,0.5,0.224,0.5,0.5 s-0.224,0.5-0.5,0.5H36c-2.206,0-4,1.794-4,4v28c0,2.206,1.794,4,4,4h28c2.206,0,4-1.794,4-4V49.625c0-0.276,0.224-0.5,0.5-0.5 s0.5,0.224,0.5,0.5V64C69,66.757,66.757,69,64,69z"/></g><g><path fill="#00b3f1" d="M60.366,52.333c0.16-0.716,0.245-1.457,0.245-2.219c0-5.71-4.697-10.34-10.493-10.34 c-0.614,0-1.212,0.052-1.795,0.151c-0.937-0.582-2.047-0.92-3.237-0.92c-3.361,0-6.085,2.685-6.085,5.996 c0,1.107,0.307,2.143,0.836,3.033c-0.139,0.672-0.212,1.367-0.212,2.08c0,5.71,4.696,10.34,10.494,10.34 c0.656,0,1.297-0.06,1.919-0.173c0.856,0.454,1.837,0.712,2.878,0.712c3.36,0,6.085-2.685,6.085-5.997 C61,54.039,60.772,53.135,60.366,52.333z"/><path fill="#472b29" d="M54.915,61.493c-1.028,0-2.047-0.238-2.957-0.691c-0.609,0.102-1.227,0.152-1.84,0.152 c-6.062,0-10.994-4.862-10.994-10.84c0-0.671,0.062-1.341,0.185-1.992c-0.53-0.957-0.809-2.032-0.809-3.121 c0-3.581,2.954-6.495,6.585-6.495c1.181,0,2.331,0.31,3.338,0.897c0.562-0.086,1.131-0.129,1.694-0.129 c6.061,0,10.993,4.862,10.993,10.84c0,0.723-0.074,1.446-0.22,2.154c0.404,0.855,0.609,1.772,0.609,2.728 C61.5,58.578,58.546,61.493,54.915,61.493z M52.118,59.757l0.153,0.082c0.805,0.428,1.719,0.654,2.644,0.654 c3.079,0,5.585-2.466,5.585-5.497c0-0.857-0.195-1.678-0.581-2.437l-0.081-0.16l0.039-0.176c0.155-0.691,0.233-1.4,0.233-2.109 c0-5.426-4.482-9.84-9.993-9.84c-0.569,0-1.146,0.049-1.712,0.145l-0.187,0.031l-0.161-0.1c-0.887-0.553-1.916-0.845-2.973-0.845 c-3.08,0-5.585,2.465-5.585,5.495c0,0.975,0.265,1.936,0.766,2.779l0.099,0.166l-0.039,0.19c-0.134,0.645-0.202,1.31-0.202,1.978 c0,5.426,4.483,9.84,9.994,9.84c0.61,0,1.226-0.056,1.83-0.166L52.118,59.757z"/></g><g><path fill="#fdfcef" d="M47.212,43.61L47.212,43.61c-0.787,0.323-1.4,0.793-1.819,1.399 c-0.424,0.609-0.638,1.316-0.638,2.101c0,0.822,0.204,1.522,0.607,2.08c0.398,0.549,0.939,0.988,1.612,1.305 c0.658,0.308,1.484,0.582,2.459,0.813c0.716,0.165,1.294,0.324,1.719,0.472c0.41,0.14,0.746,0.347,1.001,0.611 c0.242,0.253,0.361,0.574,0.361,0.984c0,0.519-0.227,0.941-0.694,1.295c-0.478,0.36-1.112,0.545-1.889,0.545 c-0.563,0-1.021-0.092-1.362-0.268c-0.339-0.178-0.603-0.404-0.787-0.673c-0.19-0.281-0.373-0.635-0.539-1.058 c-0.15-0.386-0.333-0.685-0.551-0.888c-0.225-0.212-0.504-0.318-0.827-0.318c-0.391,0-0.72,0.135-0.979,0.403 c-0.258,0.27-0.391,0.599-0.391,0.98c0,0.608,0.202,1.239,0.6,1.875c0.394,0.63,0.914,1.141,1.544,1.517 c0.882,0.518,2.012,0.78,3.359,0.78c1.121,0,2.108-0.191,2.932-0.57c0.83-0.383,1.471-0.92,1.905-1.601 c0.436-0.682,0.656-1.461,0.656-2.315c0-0.715-0.128-1.329-0.382-1.827c-0.253-0.496-0.608-0.912-1.057-1.236 c-0.441-0.317-0.981-0.59-1.606-0.811c-0.616-0.22-1.313-0.42-2.073-0.601c-0.6-0.154-1.038-0.272-1.298-0.351 c-0.254-0.078-0.507-0.188-0.754-0.324c-0.238-0.131-0.427-0.291-0.56-0.471c-0.127-0.17-0.188-0.368-0.188-0.605 c0-0.386,0.19-0.71,0.582-0.995c0.407-0.296,0.954-0.444,1.625-0.444c0.724,0,1.251,0.134,1.567,0.399 c0.326,0.272,0.608,0.662,0.842,1.152c0.202,0.385,0.385,0.652,0.56,0.825c0.189,0.185,0.46,0.279,0.809,0.279 c0.382,0,0.705-0.15,0.961-0.444c0.256-0.295,0.386-0.631,0.386-1.001c0-0.385-0.099-0.784-0.293-1.184 c-0.193-0.395-0.501-0.778-0.913-1.134c-0.41-0.353-0.93-0.642-1.548-0.855c-0.616-0.212-1.352-0.318-2.19-0.318 C48.915,43.13,47.991,43.292,47.212,43.61z"/><path fill="#472b29" d="M50,58.064c-1.436,0-2.651-0.286-3.611-0.849c-0.703-0.42-1.278-0.985-1.715-1.683 c-0.449-0.716-0.677-1.437-0.677-2.141c0-0.505,0.183-0.964,0.53-1.325c0.649-0.676,1.823-0.747,2.509-0.104 c0.268,0.249,0.496,0.61,0.674,1.071c0.149,0.38,0.313,0.703,0.486,0.957c0.137,0.2,0.341,0.372,0.606,0.512 c0.266,0.138,0.657,0.211,1.129,0.211c0.663,0,1.198-0.149,1.588-0.444c0.342-0.259,0.495-0.534,0.495-0.895 c0-0.365-0.127-0.539-0.222-0.638c-0.2-0.208-0.47-0.371-0.803-0.485c-0.409-0.143-0.97-0.296-1.67-0.457 c-1.005-0.238-1.865-0.523-2.559-0.848c-0.75-0.354-1.357-0.847-1.805-1.465c-0.466-0.645-0.703-1.442-0.703-2.373 c0-0.89,0.245-1.692,0.727-2.387c0.475-0.686,1.162-1.216,2.041-1.576l0,0c0.838-0.343,1.824-0.517,2.929-0.517 c0.003,0,0.006,0,0.01,0c0.894,0,1.686,0.116,2.353,0.346c0.674,0.232,1.25,0.552,1.711,0.949c0.465,0.399,0.813,0.835,1.036,1.294 c0.229,0.467,0.345,0.939,0.345,1.402c0,0.493-0.171,0.94-0.509,1.33c-0.672,0.771-1.898,0.777-2.496,0.195 c-0.218-0.215-0.431-0.525-0.653-0.951c-0.214-0.448-0.453-0.778-0.719-0.999c-0.218-0.184-0.66-0.283-1.247-0.283 c-0.567,0-1.015,0.117-1.331,0.348c-0.334,0.242-0.377,0.442-0.377,0.591c0,0.165,0.047,0.25,0.088,0.306 c0.092,0.123,0.23,0.238,0.402,0.333c0.218,0.12,0.44,0.216,0.659,0.283c0.254,0.077,0.685,0.193,1.275,0.345 c0.778,0.185,1.493,0.393,2.117,0.615c0.666,0.235,1.248,0.529,1.729,0.875c0.515,0.371,0.922,0.848,1.211,1.415 c0.289,0.569,0.436,1.261,0.436,2.055c0,0.952-0.247,1.821-0.733,2.584c-0.483,0.759-1.196,1.36-2.117,1.786 C52.251,57.857,51.195,58.064,50,58.064z M45.867,52.51c-0.254,0-0.457,0.082-0.618,0.25c-0.169,0.177-0.252,0.384-0.252,0.633 c0,0.514,0.176,1.055,0.524,1.609c0.352,0.563,0.815,1.018,1.377,1.353c0.802,0.471,1.846,0.71,3.102,0.71 c1.05,0,1.966-0.176,2.723-0.523c0.744-0.344,1.313-0.82,1.692-1.415c0.383-0.601,0.577-1.289,0.577-2.047 c0-0.636-0.11-1.174-0.327-1.601c-0.216-0.425-0.521-0.78-0.904-1.058c-0.403-0.289-0.9-0.54-1.479-0.744 c-0.592-0.211-1.271-0.408-2.023-0.587c-0.619-0.159-1.063-0.279-1.328-0.359c-0.286-0.088-0.571-0.21-0.85-0.363 c-0.302-0.168-0.544-0.373-0.721-0.613c-0.189-0.253-0.286-0.557-0.286-0.901c0-0.55,0.266-1.021,0.789-1.4 c0.49-0.356,1.136-0.538,1.919-0.538c0.858,0,1.476,0.169,1.888,0.516c0.375,0.313,0.703,0.757,0.971,1.319 c0.164,0.312,0.321,0.548,0.46,0.685c0.19,0.187,0.736,0.213,1.041-0.138c0.177-0.205,0.264-0.425,0.264-0.674 c0-0.31-0.082-0.634-0.243-0.964c-0.164-0.337-0.43-0.664-0.79-0.975c-0.365-0.314-0.831-0.571-1.385-0.762 c-0.563-0.194-1.251-0.26-2.036-0.291c-0.976,0-1.833,0.148-2.551,0.442c-0.697,0.285-1.234,0.695-1.598,1.221 c-0.364,0.523-0.549,1.135-0.549,1.816c0,0.716,0.172,1.316,0.513,1.787c0.347,0.479,0.825,0.865,1.42,1.146 c0.63,0.295,1.425,0.557,2.361,0.779c0.732,0.169,1.328,0.332,1.769,0.485c0.482,0.166,0.886,0.414,1.197,0.737 c0.332,0.346,0.501,0.794,0.501,1.331c0,0.676-0.301,1.245-0.893,1.692c-0.568,0.43-1.305,0.646-2.191,0.646 c-0.64,0-1.176-0.109-1.592-0.324c-0.412-0.217-0.738-0.497-0.969-0.834c-0.216-0.317-0.415-0.706-0.592-1.157 c-0.125-0.321-0.267-0.558-0.426-0.705C46.22,52.569,46.062,52.51,45.867,52.51z"/></g></svg>